<svg width="41" height="36" viewBox="0 0 41 36" fill="none" xmlns="http://www.w3.org/2000/svg">
<g filter="url(#filter0_i_86_6112)">
<path d="M39.7313 3.95749C40.5638 6.30471 39.3964 7.91176 37.1364 9.49474C35.3131 10.772 32.9902 12.1557 30.5288 14.5212C28.1157 16.8403 25.7609 19.6335 23.6679 22.3828C21.1318 25.7143 18.7336 29.194 16.6227 32.8174C15.8268 34.1896 14.3955 35.0203 12.861 34.9996C11.3262 34.9787 9.9162 34.1099 9.15466 32.7159C7.20791 29.1519 5.70565 27.7446 5.01519 27.239C3.09951 25.8364 1 25.5937 1 22.5337C1 20.03 2.9402 18.0005 5.33356 18.0005C7.04626 18.0695 8.61422 18.8076 9.98536 19.8116C10.8751 20.4631 11.8173 21.3243 12.7975 22.4584C13.9478 20.7487 15.3341 18.7762 16.8879 16.7349C19.1447 13.7706 21.8084 10.5903 24.665 7.84493C27.473 5.14618 30.7196 2.61999 34.161 1.28434C36.4048 0.413446 38.8987 1.61024 39.7313 3.95749Z" fill="#BEE3F8"/>
</g>
<path d="M39.7313 3.95749C40.5638 6.30471 39.3964 7.91176 37.1364 9.49474C35.3131 10.772 32.9902 12.1557 30.5288 14.5212C28.1157 16.8403 25.7609 19.6335 23.6679 22.3828C21.1318 25.7143 18.7336 29.194 16.6227 32.8174C15.8268 34.1896 14.3955 35.0203 12.861 34.9996C11.3262 34.9787 9.9162 34.1099 9.15466 32.7159C7.20791 29.1519 5.70565 27.7446 5.01519 27.239C3.09951 25.8364 1 25.5937 1 22.5337C1 20.03 2.9402 18.0005 5.33356 18.0005C7.04626 18.0695 8.61422 18.8076 9.98536 19.8116C10.8751 20.4631 11.8173 21.3243 12.7975 22.4584C13.9478 20.7487 15.3341 18.7762 16.8879 16.7349C19.1447 13.7706 21.8084 10.5903 24.665 7.84493C27.473 5.14618 30.7196 2.61999 34.161 1.28434C36.4048 0.413446 38.8987 1.61024 39.7313 3.95749Z" stroke="#4299E1" stroke-linecap="round" stroke-linejoin="round"/>
<defs>
<filter id="filter0_i_86_6112" x="0.5" y="0.499268" width="40" height="37.0007" filterUnits="userSpaceOnUse" color-interpolation-filters="sRGB">
<feFlood flood-opacity="0" result="BackgroundImageFix"/>
<feBlend mode="normal" in="SourceGraphic" in2="BackgroundImageFix" result="shape"/>
<feColorMatrix in="SourceAlpha" type="matrix" values="0 0 0 0 0 0 0 0 0 0 0 0 0 0 0 0 0 0 127 0" result="hardAlpha"/>
<feOffset dy="2"/>
<feGaussianBlur stdDeviation="2"/>
<feComposite in2="hardAlpha" operator="arithmetic" k2="-1" k3="1"/>
<feColorMatrix type="matrix" values="0 0 0 0 0.258824 0 0 0 0 0.6 0 0 0 0 0.882353 0 0 0 0.35 0"/>
<feBlend mode="normal" in2="shape" result="effect1_innerShadow_86_6112"/>
</filter>
</defs>
</svg>
