<svg width="119" height="94" viewBox="0 0 119 94" fill="none" xmlns="http://www.w3.org/2000/svg">
<path d="M117.524 9.94135C120.032 16.9715 116.515 21.7848 109.706 26.526C104.212 30.3515 97.2141 34.4958 89.7982 41.5809C82.5281 48.5267 75.4335 56.8927 69.1276 65.1271C61.487 75.1052 54.2615 85.5275 47.9016 96.3798C45.5039 100.49 41.1916 102.978 36.5684 102.916C31.9444 102.853 27.6963 100.251 25.402 96.0758C19.5368 85.4013 15.0107 81.1862 12.9305 79.672C7.15891 75.471 0.833496 74.7441 0.833496 65.5791C0.833496 58.0802 6.67896 52.0016 13.8897 52.0016C19.0498 52.2084 23.7737 54.4189 27.9047 57.4262C30.5853 59.3774 33.4241 61.957 36.3773 65.3535C39.8427 60.2328 44.0194 54.3249 48.7006 48.211C55.5 39.3327 63.5252 29.8073 72.1317 21.5847C80.5917 13.5016 90.3732 5.93538 100.741 1.93497C107.502 -0.673448 115.015 2.91109 117.524 9.94135Z" fill="#BEE3F8" stroke="#4299E1" stroke-linecap="round" stroke-linejoin="round"/>
</svg>
