<svg width="24" height="24" viewBox="0 0 24 24" fill="none" xmlns="http://www.w3.org/2000/svg">
<path d="M17 7.5C17.2761 7.5 17.5 7.27614 17.5 7C17.5 6.72386 17.2761 6.5 17 6.5V7.5ZM7 6.5C6.72386 6.5 6.5 6.72386 6.5 7C6.5 7.27614 6.72386 7.5 7 7.5V6.5ZM18.4274 17.3433C18.1542 17.3834 17.9652 17.6374 18.0053 17.9106C18.0454 18.1838 18.2994 18.3728 18.5726 18.3327L18.4274 17.3433ZM20.8284 16.8284L20.4749 16.4748L20.4748 16.4748L20.8284 16.8284ZM20.8284 3.17157L20.4748 3.52511L20.4748 3.52513L20.8284 3.17157ZM3.17157 3.17157L2.81802 2.81802L2.81802 2.81802L3.17157 3.17157ZM3.17157 16.8284L3.52513 16.4749L3.52511 16.4748L3.17157 16.8284ZM6.97927 18.4646C7.25517 18.476 7.48812 18.2616 7.49957 17.9857C7.51102 17.7098 7.29664 17.4769 7.02073 17.4654L6.97927 18.4646ZM12 22L11.5882 22.2836C11.6885 22.4293 11.8584 22.5111 12.0348 22.4988C12.2113 22.4865 12.3681 22.3818 12.4472 22.2236L12 22ZM13.5 19L13.7481 18.5659C13.6288 18.4977 13.4866 18.4816 13.3551 18.5215C13.2236 18.5613 13.1142 18.6535 13.0528 18.7764L13.5 19ZM17 21L16.7519 21.4341C16.9708 21.5592 17.2485 21.5018 17.3998 21.3003C17.5512 21.0987 17.5289 20.816 17.3478 20.6407L17 21ZM15.9794 17.8867C15.8907 17.6251 15.6069 17.4849 15.3454 17.5735C15.0838 17.6622 14.9436 17.946 15.0322 18.2075L15.9794 17.8867ZM17 6.5H7V7.5H17V6.5ZM18.5726 18.3327C19.6613 18.1728 20.5118 17.8521 21.182 17.182L20.4748 16.4748C20.0136 16.9361 19.3997 17.2005 18.4274 17.3433L18.5726 18.3327ZM21.1819 17.182C21.8761 16.4878 22.1952 15.6004 22.3491 14.4557C22.5011 13.3254 22.5 11.8715 22.5 10H21.5C21.5 11.8997 21.4989 13.2743 21.358 14.3225C21.219 15.3563 20.9523 15.9975 20.4749 16.4748L21.1819 17.182ZM22.5 10C22.5 8.12852 22.5011 6.6746 22.3491 5.54429C22.1952 4.39959 21.8761 3.51219 21.1819 2.81801L20.4748 3.52513C20.9523 4.00253 21.219 4.64373 21.358 5.67754C21.4989 6.72573 21.5 8.10024 21.5 10H22.5ZM21.182 2.81803C20.4878 2.12385 19.6004 1.8048 18.4557 1.6509C17.3254 1.49894 15.8715 1.5 14 1.5V2.5C15.8997 2.5 17.2743 2.50106 18.3225 2.64199C19.3563 2.78098 19.9975 3.04772 20.4748 3.52511L21.182 2.81803ZM14 1.5H10V2.5H14V1.5ZM10 1.5C8.12851 1.5 6.6746 1.49894 5.54429 1.6509C4.39959 1.80481 3.51219 2.12385 2.81802 2.81802L3.52512 3.52512C4.00253 3.04772 4.64373 2.78098 5.67754 2.64199C6.72573 2.50106 8.10024 2.5 10 2.5V1.5ZM2.81802 2.81802C2.12385 3.51219 1.80481 4.39959 1.6509 5.54429C1.49894 6.6746 1.5 8.12851 1.5 10H2.5C2.5 8.10024 2.50106 6.72573 2.64199 5.67754C2.78098 4.64373 3.04772 4.00253 3.52512 3.52512L2.81802 2.81802ZM1.5 10C1.5 11.8715 1.49894 13.3254 1.6509 14.4557C1.8048 15.6004 2.12385 16.4878 2.81803 17.182L3.52511 16.4748C3.04772 15.9975 2.78098 15.3563 2.64199 14.3225C2.50106 13.2743 2.5 11.8997 2.5 10H1.5ZM2.81801 17.1819C3.77331 18.1373 5.10085 18.3866 6.97927 18.4646L7.02073 17.4654C5.15455 17.388 4.18619 17.1359 3.52513 16.4749L2.81801 17.1819ZM14 14.5C14 15.6046 13.1046 16.5 12 16.5V17.5C13.6568 17.5 15 16.1568 15 14.5H14ZM12 16.5C10.8954 16.5 10 15.6046 10 14.5H9C9 16.1568 10.3432 17.5 12 17.5V16.5ZM10 14.5C10 13.3954 10.8954 12.5 12 12.5V11.5C10.3432 11.5 9 12.8432 9 14.5H10ZM12 12.5C13.1046 12.5 14 13.3954 14 14.5H15C15 12.8432 13.6568 11.5 12 11.5V12.5ZM9 14.5C9 18.728 10.8015 21.1413 11.5882 22.2836L12.4118 21.7164C11.6429 20.5999 10 18.4038 10 14.5H9ZM12.4472 22.2236L13.9472 19.2236L13.0528 18.7764L11.5528 21.7764L12.4472 22.2236ZM17.3478 20.6407C17.2167 20.5139 17.0597 20.2909 16.8923 19.9934C16.7293 19.7035 16.5731 19.3736 16.4361 19.0578C16.2996 18.7432 16.1849 18.4491 16.1043 18.2335C16.0641 18.1258 16.0325 18.0382 16.0112 17.9779C16.0005 17.9477 15.9924 17.9244 15.987 17.9089C15.9843 17.9012 15.9823 17.8954 15.981 17.8916C15.9804 17.8897 15.9799 17.8884 15.9797 17.8875C15.9795 17.8871 15.9794 17.8868 15.9794 17.8867C15.9793 17.8866 15.9793 17.8866 15.9793 17.8866C15.9793 17.8866 15.9793 17.8866 15.9793 17.8866C15.9793 17.8866 15.9794 17.8867 15.5058 18.0471C15.0322 18.2075 15.0323 18.2076 15.0323 18.2077C15.0323 18.2077 15.0323 18.2078 15.0323 18.2078C15.0324 18.208 15.0324 18.2081 15.0325 18.2083C15.0326 18.2087 15.0328 18.2092 15.033 18.2099C15.0335 18.2112 15.0341 18.2131 15.035 18.2155C15.0366 18.2203 15.0389 18.2271 15.042 18.236C15.0481 18.2536 15.057 18.2792 15.0686 18.3117C15.0916 18.3768 15.1251 18.4699 15.1676 18.5835C15.2524 18.8104 15.3735 19.1212 15.5187 19.4559C15.6634 19.7894 15.8349 20.1533 16.0208 20.4838C16.2025 20.8066 16.4159 21.1305 16.6522 21.3593L17.3478 20.6407ZM13.2519 19.4341L16.7519 21.4341L17.2481 20.5659L13.7481 18.5659L13.2519 19.4341Z" fill="#A0AEC0"/>
</svg>
