<svg width="52" height="56" viewBox="0 0 52 56" fill="none" xmlns="http://www.w3.org/2000/svg">
<path d="M31.122 33.4788C31.153 36.4139 33.2573 37.8146 35.9336 36.6377C39.6073 35.0213 43.2955 33.411 46.8474 31.5461C49.8561 29.9666 51.8117 27.4054 51.8881 23.8788C52.01 18.1895 51.9997 12.496 51.9997 6.80461C52.0038 2.82001 49.5092 0.127332 45.5237 0.069822C39.2893 -0.0184964 33.0528 -0.0493051 26.8267 0.137601C18.9671 0.369694 12.5118 3.63131 7.12615 9.35352C-0.93787 17.9225 -2.48459 32.8565 4.169 42.7399C8.99914 49.9142 15.5082 54.4308 24.1855 55.5522C30.5004 56.3717 36.8649 55.7864 43.2026 55.924C45.185 55.9671 47.1716 55.924 49.154 55.924C49.9532 55.9281 50.6409 55.8192 50.6429 54.7779C50.6471 53.0875 50.7152 51.3848 50.232 49.7417C48.9227 45.3135 45.0425 42.5777 39.9171 42.4996C35.6693 42.4359 31.4153 42.5243 27.1716 42.3682C24.5634 42.2737 22.0771 41.6349 19.8634 40.0472C10.7482 33.5219 11.4091 20.7158 21.1458 15.1723C25.1272 12.9027 29.4328 13.3956 33.8417 13.5189C32.107 15.4002 31.0972 17.4501 31.1076 19.9517C31.1282 24.4601 31.0766 28.9705 31.122 33.4788ZM34.265 19.9928C34.2898 17.4521 35.4586 15.9343 37.9202 15.1291C40.8319 14.1761 43.661 13.0958 46.0069 11.0192C46.9424 10.1936 47.7828 9.3145 48.3734 8.19511C48.5262 8.23824 48.6791 8.27932 48.8319 8.32451C48.8319 10.8385 48.836 13.3504 48.8277 15.8685C48.8236 18.288 48.8752 20.7117 48.7803 23.1271C48.6708 25.8711 47.4442 27.9332 44.8257 29.0999C41.7302 30.4801 38.6574 31.9014 35.6032 33.3679C34.5149 33.8916 34.2217 33.6246 34.232 32.4888C34.2671 28.3235 34.2196 24.1561 34.265 19.9928Z" fill="#4299E1"/>
</svg>
